HIERARCHY
ROOT Hips
{
	OFFSET 0.0000 0.0000 0.0000
	CHANNELS 6 Xposition Yposition Zposition Zrotation Xrotation Yrotation
	JOINT Ab
	{
		OFFSET -0.0000 8.1305 -0.0000
		CHANNELS 3 Zrotation Xrotation Yrotation
		JOINT Chest
		{
			OFFSET -0.0000 26.2902 -0.0000
			CHANNELS 3 Zrotation Xrotation Yrotation
			JOINT Neck
			{
				OFFSET -0.0000 26.2902 0.0000
				CHANNELS 3 Zrotation Xrotation Yrotation
				JOINT Head
				{
					OFFSET -0.0000 10.8167 0.0000
					CHANNELS 3 Zrotation Xrotation Yrotation
					End Site
					{
						OFFSET -0.0000 16.7167 0.0000
					}
				}
			}
			JOINT LeftCollar
			{
				OFFSET -0.0000 26.2902 0.0000
				CHANNELS 3 Zrotation Xrotation Yrotation
				JOINT LeftShoulder
				{
					OFFSET 19.6667 -0.0000 0.0000
					CHANNELS 3 Zrotation Xrotation Yrotation
					JOINT LeftElbow
					{
						OFFSET 27.2190 0.0000 0.0000
						CHANNELS 3 Zrotation Xrotation Yrotation
						JOINT LeftWrist
						{
							OFFSET 30.7431 0.0000 0.0000
							CHANNELS 3 Zrotation Xrotation Yrotation
							End Site
							{
								OFFSET 0.0000 -14.7500 0.0000
							}
						}
					}
				}
			}
			JOINT RightCollar
			{
				OFFSET -0.0000 26.2902 0.0000
				CHANNELS 3 Zrotation Xrotation Yrotation
				JOINT RightShoulder
				{
					OFFSET -19.6667 0.0000 0.0000
					CHANNELS 3 Zrotation Xrotation Yrotation
					JOINT RightElbow
					{
						OFFSET -27.2190 0.0000 0.0000
						CHANNELS 3 Zrotation Xrotation Yrotation
						JOINT RightWrist
						{
							OFFSET -30.7431 0.0000 0.0000
							CHANNELS 3 Zrotation Xrotation Yrotation
							End Site
							{
								OFFSET -0.0000 -14.7500 0.0000
							}
						}
					}
				}
			}
		}
	}
	JOINT LeftHip
	{
		OFFSET 11.8000 0.0000 0.0000
		CHANNELS 3 Zrotation Xrotation Yrotation
		JOINT LeftKnee
		{
			OFFSET -0.0000 -39.7832 0.0000
			CHANNELS 3 Zrotation Xrotation Yrotation
			JOINT LeftAnkle
			{
				OFFSET -0.0000 -41.7317 0.0000
				CHANNELS 3 Zrotation Xrotation Yrotation
				End Site
				{
					OFFSET -0.0000 -4.9167 16.7167
				}
			}
		}
	}
	JOINT RightHip
	{
		OFFSET -11.8000 0.0000 0.0000
		CHANNELS 3 Zrotation Xrotation Yrotation
		JOINT RightKnee
		{
			OFFSET -0.0000 -39.7832 0.0000
			CHANNELS 3 Zrotation Xrotation Yrotation
			JOINT RightAnkle
			{
				OFFSET -0.0000 -41.7317 0.0000
				CHANNELS 3 Zrotation Xrotation Yrotation
				End Site
				{
					OFFSET -0.0000 -4.9167 16.7167
				}
			}
		}
	}
}
MOTION
Frames: 10
Frame Time: 0.010000
-20.2618 97.2054 180.5800 358.5426 357.4513 182.1661 358.0698 348.1628 359.9993 2.2068 10.0727 0.0088 358.8194 354.8573 0.9476 357.4250 4.7077 1.1064 339.9003 357.4240 14.5122 315.3934 56.2780 343.4832 9.3503 357.1633 326.4065 86.6950 358.1236 346.2274 28.1418 355.8620 343.4949 46.6665 42.3018 1.5357 339.7512 354.3659 30.7876 270.5396 354.8592 9.3657 355.1465 3.6417 359.3938 357.5421 5.6261 5.7129 355.8903 352.3696 15.0809 358.8662 6.5817 11.7419 6.3703 5.2766 8.0354 349.3272 343.3191 311.4996 
-20.2963 97.1984 180.5483 358.5544 357.4189 182.1360 358.0662 348.1605 0.0144 2.2361 10.0855 0.0066 358.8312 354.8613 0.9629 357.3806 4.7097 1.1236 339.8797 357.3982 14.5278 315.4893 56.3163 343.3957 9.3656 357.1943 326.4704 87.1180 358.0468 346.4719 28.1190 355.8687 343.5055 46.6512 42.3606 1.5778 339.6115 354.3290 30.8521 271.3415 354.5898 8.0180 355.1421 3.6367 359.3706 357.5213 5.6173 5.7383 355.9268 352.3535 15.0914 358.8532 6.5419 11.7512 6.3713 5.3232 8.0091 349.3168 343.2980 311.5437 
-20.3365 97.1975 180.5130 358.5583 357.3850 182.1198 358.0582 348.1494 0.0146 2.2402 10.0895 0.0146 358.9061 354.8875 0.9761 357.2985 4.7157 1.1356 339.8971 357.4381 14.5026 315.4837 56.3301 343.3933 9.3075 357.1852 326.4855 87.2596 358.0420 346.5079 28.1174 355.8279 343.4940 46.6566 42.4440 1.5626 339.5421 354.3204 30.8365 271.3562 354.6189 7.9145 355.1267 3.6341 359.3146 357.5029 5.6119 5.7335 355.9591 352.3260 15.1454 358.8274 6.5239 11.7542 6.3748 5.3344 8.0107 349.2576 343.3630 311.6751 
-20.3735 97.1916 180.4806 358.5686 357.3447 182.0977 358.0517 348.1451 0.0262 2.2639 10.0969 0.0206 358.9238 354.8528 0.9845 357.2591 4.7762 1.1446 339.9036 357.4109 14.4761 315.3520 56.2811 343.5343 9.4341 357.1489 326.4294 87.0289 358.0321 346.4312 28.1244 355.8550 343.5057 46.6581 42.4084 1.5374 339.6120 354.3389 30.8795 271.2760 354.6776 7.9227 355.1130 3.6218 359.3109 357.5032 5.6051 5.7260 355.9666 352.2940 15.1656 358.8059 6.4734 11.6958 6.3914 5.4009 8.1047 349.3116 343.2382 311.5216 
-20.4176 97.1859 180.4425 358.5615 357.3220 182.1031 358.0449 348.1667 0.0121 2.2437 10.0733 0.0112 358.9459 354.8535 0.9932 357.2798 4.8239 1.1524 339.9182 357.4436 14.4398 315.2702 56.2193 343.6452 9.3424 357.1566 326.4040 87.0374 358.0300 346.2870 28.1426 355.8139 343.5083 46.6678 42.4512 1.5142 339.5803 354.2874 30.8617 271.2861 354.6765 7.9814 355.0776 3.6286 359.2589 357.4978 5.5975 5.7640 355.9410 352.2611 15.1538 358.7674 6.4639 11.6179 6.3991 5.4260 8.1852 348.5033 343.7593 311.4630 
-20.4583 97.1757 180.4147 358.5852 357.2686 182.1042 358.0942 348.1714 0.0069 2.2025 10.0528 359.9844 358.9271 354.8753 0.9945 357.3027 4.7945 1.1547 339.9251 357.4249 14.4845 315.3820 56.2678 343.4979 9.4086 357.1463 326.4830 86.9396 358.0098 346.3138 28.1726 355.8556 343.5211 46.6193 42.4531 1.5185 339.6657 354.3383 30.9091 271.2622 354.6816 7.9835 355.0796 3.5900 359.2642 357.4893 5.6125 5.7006 356.0022 352.2309 15.1791 358.7556 6.4177 11.6556 6.4225 5.4396 8.1259 349.2940 343.2013 311.5155 
-20.5008 97.1710 180.3672 358.5974 357.2555 182.0876 358.0844 348.1869 0.0123 2.2438 10.0671 0.0096 358.9152 354.8987 0.9927 357.3151 4.7578 1.1530 339.8359 357.4223 14.4916 315.6260 56.2078 343.3723 9.2248 357.2098 326.4662 87.3076 358.0035 346.3939 28.1294 355.8392 343.4695 46.6181 42.5732 1.6163 339.5149 354.2717 30.8151 271.4386 354.7940 8.1454 355.0636 3.6256 359.2326 357.4841 5.5839 5.7348 356.0842 352.2194 15.1816 358.7264 6.4359 11.7282 6.4521 5.4253 8.0890 349.3037 343.1699 311.4908 
-20.5371 97.1642 180.3291 358.6182 357.2124 182.0652 358.0935 348.1774 0.0193 2.2487 10.0826 0.0156 358.9409 354.8742 0.9844 357.2786 4.7858 1.1453 339.8580 357.3991 14.5001 315.5729 56.2186 343.4031 9.3318 357.1725 326.4278 87.1777 358.0298 346.3919 28.1284 355.8395 343.4552 46.6376 42.5712 1.6266 339.6141 354.3765 30.7358 270.5539 354.9141 9.0294 355.0698 3.6240 359.2420 357.4638 5.5548 5.7291 356.0911 352.2009 15.1875 358.7245 6.3865 11.7183 6.4512 5.4846 8.0953 349.2867 343.2014 311.6292 
-20.5880 97.1636 180.3044 358.6044 357.1465 182.0672 358.0937 348.1716 0.0139 2.2146 10.0660 0.0126 358.9824 354.8425 0.9844 357.2289 4.8426 1.1452 339.9093 357.4413 14.5053 315.4890 56.2285 343.4202 9.3477 357.1956 326.4463 87.1473 358.0251 346.3602 28.1394 355.8363 343.4492 46.6440 42.5872 1.6322 339.6312 354.3406 30.7309 270.5535 354.9325 9.0894 355.0146 3.5624 359.1764 357.4707 5.5847 5.7684 356.1081 352.1715 15.1864 358.6672 6.3088 11.7012 6.4758 5.5400 8.0952 348.4684 343.7239 311.6112 
-20.6289 97.1555 180.2632 358.6366 357.1152 182.0553 358.0895 348.1784 0.0311 2.2631 10.0691 0.0221 359.0160 354.8418 0.9930 357.1689 4.8676 1.1577 339.8583 357.3927 14.5192 315.6438 56.2296 343.3105 9.3283 357.1673 326.4762 87.1374 358.0051 346.3331 28.1235 355.8203 343.4620 46.6666 42.5982 1.5917 339.6016 354.3461 30.7506 270.5414 354.9328 9.0633 355.0301 3.5613 359.1863 357.4498 5.5880 5.7307 356.1411 352.1375 15.2155 358.6654 6.2848 11.8070 6.5021 5.5604 8.0207 348.4634 343.6868 311.5810 
